<svg version="1.2" xmlns="http://www.w3.org/2000/svg" viewBox="0 0 44 44" width="44" height="44"><defs><clipPath clipPathUnits="userSpaceOnUse" id="cp1"><path d="m0 0h44v44h-44z"/></clipPath></defs><style>.a{fill:#c9b199}</style><g clip-path="url(#cp1)"><path class="a" d="m22 11c-1.4 0-2.9 0.4-4.1 1.2-1.2 0.8-2.1 2-2.7 3.3-0.5 1.4-0.7 2.8-0.4 4.3 0.3 1.4 1 2.7 2 3.7 1 1 2.4 1.7 3.8 2 1.4 0.3 2.9 0.2 4.2-0.4 1.4-0.5 2.5-1.5 3.3-2.7 0.8-1.2 1.2-2.6 1.2-4.1 0-1.9-0.7-3.8-2.1-5.2-1.4-1.3-3.2-2.1-5.2-2.1zm0 11c-0.7 0-1.4-0.2-2-0.6-0.6-0.4-1.1-1-1.4-1.7-0.3-0.6-0.3-1.4-0.2-2.1 0.2-0.7 0.5-1.3 1-1.9 0.5-0.5 1.2-0.8 1.9-1 0.7-0.1 1.4 0 2.1 0.2 0.7 0.3 1.3 0.8 1.7 1.4 0.4 0.6 0.6 1.3 0.6 2 0 1-0.4 1.9-1.1 2.6-0.7 0.7-1.6 1.1-2.6 1.1z"/><path class="a" d="m22 44c-1.6 0-3.1-0.4-4.4-1.1-1.4-0.7-2.6-1.7-3.5-2.9-7-9.7-10.5-16.9-10.5-21.6 0-4.9 1.9-9.5 5.4-13 3.4-3.5 8.1-5.4 13-5.4 4.9 0 9.6 1.9 13 5.4 3.5 3.5 5.4 8.1 5.4 13 0 4.7-3.5 11.9-10.5 21.6-0.9 1.2-2.1 2.2-3.5 2.9-1.3 0.7-2.9 1.1-4.4 1.1zm0-40c-3.8 0-7.5 1.5-10.2 4.2-2.7 2.7-4.2 6.4-4.2 10.2 0 3.7 3.4 10.5 9.7 19.2 0.6 0.8 1.3 1.4 2.1 1.8 0.8 0.4 1.7 0.6 2.6 0.6 0.9 0 1.8-0.2 2.6-0.6 0.8-0.4 1.5-1 2.1-1.8 6.3-8.7 9.7-15.5 9.7-19.2 0-3.8-1.5-7.5-4.2-10.2-2.7-2.7-6.4-4.2-10.2-4.2z"/></g></svg>