<svg version="1.2" xmlns="http://www.w3.org/2000/svg" viewBox="0 0 46 40" width="46" height="40"><style>.a{fill:#c9b199}</style><path class="a" d="m36.4 0h-26.8c-2.6 0-5 1-6.8 2.7-1.8 1.7-2.8 4-2.8 6.4v21.8c0 2.4 1 4.7 2.8 6.4 1.8 1.7 4.2 2.7 6.8 2.7h26.8c2.6 0 5-1 6.8-2.7 1.8-1.7 2.8-4 2.8-6.4v-21.8c0-2.4-1-4.7-2.8-6.4-1.8-1.7-4.2-2.7-6.8-2.7zm-26.8 3.6h26.8c1.2 0 2.3 0.4 3.2 1 1 0.6 1.7 1.5 2.1 2.5l-14.6 13.9c-1.1 1-2.6 1.6-4.1 1.6-1.5 0-3-0.6-4.1-1.6l-14.6-13.9c0.4-1 1.1-1.9 2.1-2.5 0.9-0.6 2-1 3.2-1zm26.8 32.8h-26.8c-1.5 0-3-0.6-4.1-1.6-1.1-1.1-1.7-2.4-1.7-3.9v-19.1l12.4 11.8c1.8 1.7 4.3 2.6 6.8 2.6 2.5 0 5-0.9 6.8-2.6l12.4-11.8v19.1c0 1.5-0.6 2.8-1.7 3.9-1.1 1-2.6 1.6-4.1 1.6z"/></svg>