<svg version="1.2" xmlns="http://www.w3.org/2000/svg" viewBox="0 0 42 40" width="42" height="40"><style>.a{fill:#c9b199}</style><path class="a" d="m28.8 27.3l1-0.9-2.3-2.3-1 0.9zm4.3-1.4l4.1 2.3 1.6-2.9-4.1-2.2zm4.9 6.7l-3.1 3.1 2.3 2.3 3-3.1zm-4.9 4c-3.1 0.3-11.2 0.1-19.9-8.7l-2.3 2.3c9.5 9.6 18.6 10 22.5 9.7zm-19.9-8.7c-8.4-8.4-9.8-15.4-9.9-18.4l-3.3 0.2c0.3 3.8 2 11.6 10.9 20.5zm2.9-13.4l0.7-0.6-2.3-2.3-0.6 0.6zm1.1-8.5l-2.7-3.6-2.6 1.9 2.7 3.7zm-11.8-4.5l-3.4 3.4 2.2 2.3 3.4-3.4zm9.6 11.8c-1.1-1.1-1.1-1.1-1.1-1.1q-0.2 0.1-0.3 0.3-0.2 0.3-0.3 0.7c-0.3 0.7-0.4 1.5-0.2 2.3 0.2 1.9 1.5 4.3 4.8 7.6l2.3-2.3c-3.1-3-3.8-4.9-3.9-5.8-0.1-0.4 0-0.6 0-0.7q0 0 0 0-0.1 0.1-0.1 0.1 0 0 0 0zm2.9 9.9c3.2 3.3 5.7 4.5 7.6 4.8 0.9 0.2 1.7 0.1 2.3-0.2q0.5-0.1 0.9-0.5 0.1 0 0.1-0.1c0 0 0 0-1.1-1.1-1.1-1.2-1.1-1.2-1.1-1.2q0-0.1 0.1-0.1 0 0 0 0c-0.1 0-0.3 0.1-0.7 0-0.9-0.1-2.8-0.9-5.9-3.9zm-3.3-20.8c-2.2-3-6.5-3.4-9.2-0.8l2.3 2.3c1.2-1.2 3.2-1 4.3 0.4zm-11.3 7.1c0-0.7 0.3-1.5 1.1-2.2l-2.3-2.3c-1.2 1.2-2.1 2.8-2 4.7zm31.7 26.1q-0.9 0.9-1.8 1l0.3 3.2c1.5-0.1 2.8-0.9 3.8-1.9zm-18.2-21.7c2.1-2.1 2.2-5.5 0.5-7.8l-2.6 1.9c0.8 1.2 0.7 2.7-0.2 3.6zm20.5 14.2c1.8 1 2 3.2 0.8 4.5l2.3 2.3c2.8-2.9 2-7.7-1.6-9.7zm-7.4-1.8c0.8-0.8 2.2-1 3.3-0.4l1.6-2.8c-2.4-1.3-5.3-1-7.2 0.9z"/></svg>