<svg version="1.2" xmlns="http://www.w3.org/2000/svg" viewBox="0 0 47 21" width="47" height="21"><style>.a{fill:#c9b199}</style><path class="a" d="m0.8 17.8h3.7c1.3 2.2 4.1 3 6.3 1.7 0.7-0.4 1.3-1 1.7-1.7h21.4c1.3 2.2 4.1 3 6.3 1.7 0.8-0.4 1.4-1 1.8-1.7q0.1 0 0.2-0.1l3.9-2.3c0.2-0.2 0.4-0.4 0.4-0.7v-7q0-0.1-0.1-0.2 0-0.1 0-0.1 0 0-0.1-0.1l-2.1-3.5 0.6-1.1c0.2-0.4 0.1-0.9-0.3-1.1q-0.1 0-0.2-0.1l-4-0.6-1.9-0.3c-9.3-1.6-18.8 0-27.1 4.4l-2.3 1.2-3.5 0.8c-2.3 0.5-4.3 2.1-5.4 4.3q-0.1 0.1-0.1 0.3v5.4c0 0.4 0.3 0.8 0.8 0.8zm10.6-1.1c-0.7 1.6-2.6 2.3-4.1 1.6-1.6-0.7-2.3-2.5-1.6-4.1 0.7-1.5 2.5-2.2 4.1-1.6 1.1 0.5 1.8 1.6 1.8 2.9q0 0.6-0.2 1.2zm29.4 0c-0.7 1.6-2.5 2.3-4.1 1.6-1.6-0.7-2.3-2.5-1.6-4.1 0.7-1.5 2.5-2.2 4.1-1.6 1.1 0.5 1.8 1.6 1.8 2.9q0 0.6-0.2 1.2zm-6-9q0.4 0 0.6-0.2l5-5 2.6 0.4-0.3 0.6c-0.2 0.2-0.1 0.5 0 0.8l1.6 2.7h-4c-0.5 0-0.8 0.3-0.8 0.7q0 0.3 0.1 0.5l2.4 3.1c0.1 0.2 0.3 0.3 0.6 0.3h2.3v2.7l-2.3 1.4q0-0.1 0-0.2c0-2.6-2.1-4.7-4.7-4.7-2.5 0-4.6 2.1-4.6 4.7q0 0.3 0.1 0.7 0 0 0 0h-6.2l1.2-8.5zm-5.5-6.1q4.4-0.2 8.8 0.5l0.4 0.1-4 4h-5.9zm15.6 8.4h-1.9l-1.2-1.5h3.1zm-17.1-8.4l-0.7 4.5h-14.7c4.8-2.5 10-4 15.4-4.5zm-26.2 11.5h1.5v-1.6h-1.4c0.9-1.6 2.4-2.7 4.2-3.1l3.5-0.8h17.5l-1.2 8.6h-12.6q0-0.1 0-0.1 0.1-0.4 0.1-0.7c0-2.6-2.1-4.7-4.6-4.7-2.6 0-4.7 2.1-4.7 4.7q0 0.3 0.1 0.7 0 0 0 0.1h-2.4z"/><path class="a" d="m20.1 9.3h3.1v1.5h-3.1z"/></svg>