<svg version="1.2" xmlns="http://www.w3.org/2000/svg" viewBox="0 0 44 26" width="44" height="26"><style>.a{fill:#c9b199}</style><path fill-rule="evenodd" class="a" d="m43.1 20.9h-4.2c-0.3 0-0.6-0.2-0.6-0.5 0-2.3-1.8-4.1-4-4.1-2.3 0-4.1 1.8-4.1 4.1 0 0.3-0.3 0.5-0.6 0.5h-15.6c-0.3 0-0.6-0.2-0.6-0.5 0-2.3-1.8-4.1-4-4.1-2.3 0-4.1 1.8-4.1 4.1 0 0.3-0.3 0.5-0.6 0.5h-1.4c-1.8 0-3.3-1.4-3.3-3.2v-8.6c0-0.3 0.2-0.6 0.6-0.6h36.8c3.4 0 6.2 2.8 6.2 6.2v5.7c0 0.3-0.2 0.5-0.5 0.5zm-3.7-1.1h3.1v-5.1c0-2.8-2.3-5.1-5.1-5.1h-36.3v8.1c0 1.2 1 2.1 2.2 2.1h0.9c0.3-2.6 2.5-4.6 5.2-4.6 2.6 0 4.8 2 5.1 4.6h14.6c0.3-2.6 2.5-4.6 5.2-4.6 2.6 0 4.8 2 5.1 4.6z"/><path fill-rule="evenodd" class="a" d="m33.9 9.6h-33.3c-0.4 0-0.6-0.2-0.6-0.5v-6.2c0-1.6 1.3-2.9 2.9-2.9h22.5c5 0 9.1 4.1 9.1 9.1 0 0.3-0.3 0.5-0.6 0.5zm-32.8-1.1h32.2c-0.3-4.1-3.7-7.4-7.9-7.4h-22.5c-1 0-1.8 0.8-1.8 1.8z"/><path fill-rule="evenodd" class="a" d="m9.4 25.5c-2.9 0-5.2-2.3-5.2-5.1 0-2.9 2.3-5.2 5.2-5.2 2.8 0 5.1 2.3 5.1 5.2 0 2.8-2.3 5.1-5.1 5.1zm0-9.2c-2.3 0-4.1 1.8-4.1 4.1 0 2.2 1.8 4 4.1 4 2.2 0 4-1.8 4-4 0-2.3-1.8-4.1-4-4.1z"/><path fill-rule="evenodd" class="a" d="m34.3 25.5c-2.9 0-5.2-2.3-5.2-5.1 0-2.9 2.3-5.2 5.2-5.2 2.8 0 5.1 2.3 5.1 5.2 0 2.8-2.3 5.1-5.1 5.1zm0-9.2c-2.3 0-4.1 1.8-4.1 4.1 0 2.2 1.8 4 4.1 4 2.2 0 4-1.8 4-4 0-2.3-1.8-4.1-4-4.1z"/><path fill-rule="evenodd" class="a" d="m9.4 23c-1.5 0-2.7-1.2-2.7-2.6 0-1.5 1.2-2.7 2.7-2.7 1.4 0 2.6 1.2 2.6 2.7 0 1.4-1.2 2.6-2.6 2.6zm0-4.2c-0.9 0-1.6 0.7-1.6 1.6 0 0.8 0.7 1.5 1.6 1.5 0.8 0 1.5-0.7 1.5-1.5 0-0.9-0.7-1.6-1.5-1.6z"/><path fill-rule="evenodd" class="a" d="m34.3 23c-1.5 0-2.7-1.2-2.7-2.6 0-1.5 1.2-2.7 2.7-2.7 1.4 0 2.6 1.2 2.6 2.7 0 1.4-1.2 2.6-2.6 2.6zm0-4.2c-0.9 0-1.6 0.7-1.6 1.6 0 0.8 0.7 1.5 1.6 1.5 0.8 0 1.5-0.7 1.5-1.5 0-0.9-0.7-1.6-1.5-1.6z"/><path fill-rule="evenodd" class="a" d="m17.2 9.6c-0.3 0-0.5-0.2-0.5-0.5v-8.5c0-0.4 0.2-0.6 0.5-0.6 0.3 0 0.6 0.2 0.6 0.6v8.5c0 0.3-0.3 0.5-0.6 0.5z"/><path fill-rule="evenodd" class="a" d="m43 17.9h-2.2c-0.3 0-0.6-0.3-0.6-0.6v-3.1c0-0.3 0.3-0.5 0.6-0.5h2.2c0.3 0 0.6 0.2 0.6 0.5v3.1c0 0.3-0.3 0.6-0.6 0.6zm-1.7-1.2h1.2v-1.9h-1.2z"/></svg>