<svg version="1.2" xmlns="http://www.w3.org/2000/svg" viewBox="0 0 54 16" width="54" height="16"><style>.a{fill:#c9b199}</style><path class="a" d="m53.3 9.2q-0.1-0.2-0.2-0.2-0.5-0.2-1.5-0.6-0.2-0.1-0.5-0.3c-2.5-1.1-6.2-2.7-9.8-3.2-15.4-7-25.8-4.9-34.1-3.2-2.4 0.5-4.7 0.9-6.8 1.1q-0.2 0.1-0.4 0.3c0 0.1 0 0.3 0.1 0.4l1.2 1.9v4.2l-1.1 0.7c-0.2 0.1-0.2 0.4-0.2 0.6l0.9 2.2q0.1 0.1 0.3 0.2l2.7 0.9 2.6 0.4c0.8 0.8 1.9 1.3 3.1 1.3 1 0 1.9-0.3 2.6-0.8h26.3c0.8 0.5 1.7 0.8 2.6 0.8 1 0 1.9-0.3 2.6-0.8h8.3q0.2 0 0.4-0.2 0.1-0.2 0-0.4l-0.7-1.6 1.6-3.3q0.1-0.2 0-0.4zm-2.3 3.1l-2.6-1.6h0.2c0.2 0 0.4-0.2 0.4-0.4 0-0.3-0.2-0.5-0.4-0.5h-1.8c-0.2 0-0.3 0.1-0.4 0.3-0.1 0.2 0 0.4 0.2 0.5l4.3 2.6 0.4 1h-6.7c0.6-0.7 0.9-1.6 0.9-2.6 0-2.4-2-4.4-4.4-4.4-2.4 0-4.3 2-4.3 4.4 0 1 0.3 1.9 0.9 2.6h-24.6c0.6-0.7 0.9-1.6 0.9-2.6 0-2.4-2-4.4-4.4-4.4-2.4 0-4.3 2-4.3 4.4 0 0.7 0.2 1.4 0.5 2l-1.7-0.3-2.4-0.8-0.7-1.6 3.2-2q0.1-0.1 0.2-0.3 0-0.2-0.1-0.3l-2.6-3.9 3.8 1.9q0.1 0 0.2 0c0.2 0 0.3-0.1 0.4-0.2 0.1-0.2 0-0.5-0.2-0.6l-3.9-2c1.7-0.2 3.5-0.6 5.4-1 7.8-1.6 17.4-3.6 31.3 2.2-15.1-5.1-21.5-2.8-21.8-2.7l-4.3 1.7c-1.5-0.2-3.3-0.4-5.6-0.5-0.3-0.1-0.5 0.1-0.5 0.4 0 0.2 0.2 0.4 0.4 0.4 2.4 0.2 4.2 0.4 5.8 0.5l21.8 2.7q0 0 0.1 0 0 0 0 0 0.1 0 0.2-0.1 0 0 0 0 0 0 0 0 0.1 0 0.1 0c1-0.9 2.3-1.4 3.9-1.5h0.1c2.2-0.1 4.7 0.5 7 1.3 0.4 0.9 1.7 1.8 4.3 2.9q0 0 0.1 0 0.1 0 0.2 0l1-0.5q0.5 0.2 0.9 0.3l-1.4 2.7zm-48.8-5.6l1.2 1.7-1.2 0.7zm4 4.9c0-2 1.5-3.5 3.5-3.5 1.9 0 3.5 1.5 3.5 3.5 0 1.9-1.6 3.5-3.5 3.5-2 0-3.5-1.6-3.5-3.5zm31.5 0c0-2 1.5-3.5 3.5-3.5 1.9 0 3.5 1.5 3.5 3.5 0 1.9-1.6 3.5-3.5 3.5-2 0-3.5-1.6-3.5-3.5zm12.8-2.8l-0.2 0.1c-1.2-0.5-2.1-0.9-2.6-1.3 1 0.4 2 0.9 2.8 1.2zm-15.5-2.8c-0.5-1.8-3-2.2-3.8-2.3-0.2 0-0.4 0-0.5 0.2-0.1 0.1-0.1 0.3 0 0.4l0.8 1.7-12.9-1.6-0.9-1.7c1.7-0.4 7.7-1.3 19.3 2.4q-1.1 0.3-2 0.9zm-3.1-1.3c1.5 0.4 2 0.9 2.2 1.4l-1.8-0.6zm-15-1.8l0.7 1.4-3.1-0.4 2.4-0.9z"/><path class="a" d="m35.4 12.5h-12.2l-5-1.7-2.1-3 2.2-0.6 16.2 1.8c0.2 0 0.5-0.2 0.5-0.4 0-0.3-0.2-0.5-0.4-0.5l-16.3-1.8q-0.1 0-0.1 0.1l-2.9 0.7q-0.2 0.1-0.3 0.3-0.1 0.2 0.1 0.4l2.5 3.6q0 0.1 0.2 0.2l5.2 1.7q0.1 0.1 0.2 0.1h12.2c0.3 0 0.5-0.2 0.5-0.5 0-0.2-0.2-0.4-0.5-0.4z"/><path class="a" d="m41.1 9c-1.4 0-2.6 1.1-2.6 2.6 0 1.4 1.2 2.6 2.6 2.6 1.5 0 2.6-1.2 2.6-2.6 0-1.5-1.1-2.6-2.6-2.6zm0 4.3c-0.9 0-1.7-0.8-1.7-1.7 0-1 0.8-1.8 1.7-1.8 1 0 1.8 0.8 1.8 1.8 0 0.9-0.8 1.7-1.8 1.7z"/><path class="a" d="m9.6 9c-1.4 0-2.6 1.1-2.6 2.6 0 1.4 1.2 2.6 2.6 2.6 1.5 0 2.6-1.2 2.6-2.6 0-1.5-1.1-2.6-2.6-2.6zm0 4.3c-0.9 0-1.7-0.8-1.7-1.7 0-1 0.8-1.8 1.7-1.8 1 0 1.8 0.8 1.8 1.8 0 0.9-0.8 1.7-1.8 1.7z"/></svg>