<svg version="1.2" xmlns="http://www.w3.org/2000/svg" viewBox="0 0 42 32" width="42" height="32"><style>.a{fill:#c9b199}</style><path class="a" d="m15.8 0.3h-11.9c-2.1 0-3.9 1.7-3.9 3.9v11.8c0 2.2 1.8 3.9 3.9 3.9h5.3l-2 10.3c0 0.4 0.1 0.8 0.3 1.1 0.3 0.3 0.6 0.4 1 0.4h4.3c1.1 0 2.1-0.7 2.5-1.8l3.8-9q0-0.1 0.1-0.2 0.5-1.9 0.5-3.9v-12.6c0-2.2-1.8-4-3.9-4z"/><path class="a" d="m38.1 0.3h-11.9c-2.1 0-3.9 1.7-3.9 3.9v11.8c0 2.2 1.8 3.9 3.9 3.9h5.3l-1.9 10.3c-0.1 0.4 0 0.8 0.2 1.1 0.3 0.3 0.7 0.4 1 0.4h4.3c1.1 0 2.2-0.7 2.5-1.8l3.8-9q0.1-0.1 0.1-0.2 0.5-1.9 0.5-3.9v-12.6c0-2.2-1.8-4-3.9-4z"/></svg>