<svg version="1.2" xmlns="http://www.w3.org/2000/svg" viewBox="0 0 46 46" width="46" height="46"><defs><clipPath clipPathUnits="userSpaceOnUse" id="cp1"><path d="m0 0h46v46h-46z"/></clipPath></defs><style>.a{fill:#ff3600}</style><g clip-path="url(#cp1)"><filter id="f0"><feFlood flood-color="#c9b199" flood-opacity="1" /><feBlend mode="normal" in2="SourceGraphic"/><feComposite in2="SourceAlpha" operator="in" /></filter><g filter="url(#f0)"><path class="a" d="m41 0h-36c-2.8 0-5 2.2-5 5v30.3c0 2.7 2.2 4.9 5 4.9h11.7l5.3 5.4c0.3 0.3 0.6 0.4 1 0.4 0.4 0 0.7-0.1 1-0.4l5.3-5.4h11.7c2.8 0 5-2.2 5-4.9v-30.3c0-2.8-2.2-5-5-5zm2.3 35.3c0 1.2-1 2.2-2.3 2.2h-12.2c-0.4 0-0.7 0.2-1 0.4l-4.8 4.8-4.8-4.8c-0.3-0.2-0.6-0.4-1-0.4h-12.2c-1.3 0-2.3-1-2.3-2.2v-30.3c0-1.3 1-2.3 2.3-2.3h36c1.3 0 2.3 1 2.3 2.3z"/><path class="a" d="m34.6 15.5l-7.2-1-3.2-6.5c-0.2-0.5-0.7-0.8-1.2-0.8-0.5 0-1 0.3-1.2 0.8l-3.2 6.5-7.2 1c-0.5 0.1-0.9 0.4-1.1 0.9-0.1 0.5 0 1 0.4 1.4l5.2 5.1-1.3 7.1c-0.1 0.5 0.2 1 0.6 1.3 0.4 0.3 0.9 0.3 1.4 0.1l6.4-3.4 6.4 3.4q0.3 0.2 0.6 0.2c0.8 0 1.4-0.6 1.4-1.4q0-0.1 0-0.3l-1.3-7 5.2-5.1c0.4-0.4 0.5-0.9 0.4-1.4-0.2-0.5-0.6-0.8-1.1-0.9zm-6.8 5.9c-0.4 0.3-0.5 0.8-0.4 1.2l0.8 5.2-4.6-2.5c-0.4-0.2-0.8-0.2-1.2 0l-4.6 2.5 0.8-5.2c0.1-0.4 0-0.9-0.4-1.2l-3.7-3.6 5.2-0.8c0.4 0 0.8-0.3 1-0.7l2.3-4.7 2.3 4.7c0.2 0.4 0.6 0.7 1 0.7l5.2 0.8z"/></g></g></svg>