<svg version="1.2" xmlns="http://www.w3.org/2000/svg" viewBox="0 0 46 46" width="46" height="46"><defs><clipPath clipPathUnits="userSpaceOnUse" id="cp1"><path d="m0 0h46v46h-46z"/></clipPath></defs><style>.a{fill:#ff3600}</style><g clip-path="url(#cp1)"><filter id="f0"><feFlood flood-color="#c9b199" flood-opacity="1" /><feBlend mode="normal" in2="SourceGraphic"/><feComposite in2="SourceAlpha" operator="in" /></filter><g filter="url(#f0)"><path class="a" d="m21.1 42.2h-20.1c-0.3 0-0.6-0.2-0.8-0.4-0.2-0.2-0.2-0.5-0.2-0.8l1.1-4.2c0.5-2.1 2-3.7 4-4.3l7.7-2.6c1.1-0.5 1.9-2.2 1.9-4.7-0.8-0.8-2.7-2.8-2.7-4.8 0-0.7-0.3-0.9-0.3-0.9-0.3 0-0.4-0.2-0.5-0.5-0.1-0.2-1-2.4-1-3.8q0-0.1 0.1-0.2c0.1-0.5 0.4-1 0.8-1.3q0-0.4 0.1-0.8c0-1 0.1-2.2 0.1-3.8 0-3.6 4.4-9.1 9.8-9.1 4.9 0 7.3 2.6 7.6 4.3 1.2 0.7 2.3 1.8 2.3 4.8v4.6c0.5 0.3 0.8 0.8 0.9 1.2q0 0.1 0 0.3c0 0.5-0.4 1-0.9 1-0.5 0-0.9-0.3-1-0.8q0-0.1-0.1-0.2c-0.5 0-0.8-0.4-0.8-0.9v-5.2c0-2.5-0.8-2.9-1.3-3.1-0.3-0.2-0.9-0.5-0.9-1.2 0-0.6-1.7-2.9-5.8-2.9-4.6 0-7.9 4.7-7.9 7.2 0 1.6-0.1 2.9-0.1 3.9q-0.1 0.8-0.1 1.3c0 0.5-0.4 0.9-0.8 1 0 0.8 0.4 2 0.6 2.7 0.5 0.3 1.1 1.1 1.1 2.4 0 1.1 1.2 2.6 2.4 3.6 0.2 0.2 0.4 0.4 0.4 0.7 0 3.7-1.2 6.1-3.2 7l-7.8 2.6c-1.4 0.4-2.4 1.6-2.8 3l-0.7 2.9h18.9c0.6 0 1 0.5 1 1 0 0.5-0.4 1-1 1z"/><path class="a" d="m34.5 46q-0.2 0-0.4-0.1c-0.4-0.2-11.1-4.8-11.1-14.2v-8c0-0.4 0.3-0.8 0.7-0.9l10.5-3.6q0.3-0.1 0.6 0l10.5 3.6c0.4 0.1 0.7 0.5 0.7 0.9v8c0 9.4-10.7 14-11.1 14.2q-0.2 0.1-0.4 0.1zm-9.6-21.6v7.3c0 7.2 7.8 11.4 9.6 12.3 1.8-0.9 9.6-5.1 9.6-12.3v-7.3l-9.6-3.3z"/><path class="a" d="m33.5 36.4q0 0 0 0c-0.3 0-0.5-0.1-0.7-0.3l-3.8-4.8c-0.4-0.4-0.3-1.1 0.1-1.4 0.4-0.3 1-0.2 1.4 0.2l3.1 3.9 6-5.9c0.3-0.4 1-0.4 1.3 0 0.4 0.3 0.4 1 0 1.3l-6.7 6.7q-0.3 0.3-0.7 0.3z"/></g></g></svg>