<svg version="1.2" xmlns="http://www.w3.org/2000/svg" viewBox="0 0 75 33" width="75" height="33"><style>.a{fill:#c9b199}</style><path class="a" d="m1.2 28.4h6c2 3.5 6.5 4.8 10.1 2.7 1.1-0.6 2-1.6 2.7-2.7h34.2c2 3.5 6.5 4.8 10 2.7 1.2-0.6 2.1-1.6 2.8-2.7q0.2-0.1 0.4-0.2l6.2-3.7c0.3-0.2 0.6-0.6 0.6-1v-11.2q0-0.2-0.1-0.4 0 0-0.1-0.1 0 0 0-0.1l-3.4-5.6 1-1.9c0.3-0.6 0-1.3-0.6-1.6q-0.2-0.1-0.3-0.1l-6.4-1.1-3-0.5c-14.8-2.4-30 0.1-43.3 7.1l-3.6 1.9-5.6 1.3c-3.7 0.8-6.9 3.3-8.7 6.8q-0.1 0.2-0.1 0.5v8.7c0 0.7 0.6 1.2 1.2 1.2zm16.9-1.7c-1.1 2.5-4 3.6-6.5 2.5-2.5-1.1-3.6-4-2.5-6.5 1.1-2.5 4-3.6 6.5-2.5 1.8 0.8 2.9 2.5 2.9 4.5q0 1-0.4 2zm47 0c-1.1 2.5-4 3.6-6.5 2.5-2.5-1.1-3.6-4-2.5-6.5 1.1-2.5 4-3.6 6.5-2.5 1.8 0.8 2.9 2.5 2.9 4.5q0 1-0.4 2zm-9.5-14.4c0.4 0 0.7-0.1 0.9-0.3l8-8.1 4.1 0.7-0.5 1c-0.2 0.4-0.2 0.8 0.1 1.2l2.5 4.3h-6.4c-0.7 0-1.3 0.6-1.3 1.2q0 0.4 0.3 0.8l3.7 4.9c0.2 0.3 0.6 0.5 1 0.5h3.7v4.3l-3.7 2.2q0-0.2 0-0.3c0-4.1-3.3-7.4-7.4-7.4-4.1 0-7.4 3.3-7.4 7.4q0 0.6 0.1 1.1 0 0.1 0 0.1h-9.8l1.9-13.6zm-8.8-9.7c4.7-0.3 9.4 0 14.1 0.7l0.6 0.2-6.4 6.4h-9.4zm24.9 13.4h-3.1l-1.8-2.4h4.9zm-27.4-13.3l-1 7.1h-23.5c7.6-4 15.9-6.4 24.5-7.1zm-41.8 18.2h2.5v-2.5h-2.3c1.4-2.5 3.9-4.3 6.7-4.9l5.6-1.2h27.9l-1.9 13.6h-20.1q0-0.1 0-0.2 0.1-0.5 0.1-1.1c0-4.1-3.3-7.4-7.4-7.4-4.1 0-7.4 3.3-7.4 7.4q0 0.6 0.1 1.1 0 0.1 0 0.2h-3.8z"/></svg>