<svg version="1.2" xmlns="http://www.w3.org/2000/svg" viewBox="0 0 54 54" width="54" height="54"><style>.a{fill:#fff}</style><path fill-rule="evenodd" class="a" d="m27 0c14.9 0 27 12.1 27 27 0 14.9-12.1 27-27 27-14.9 0-27-12.1-27-27 0-14.9 12.1-27 27-27z"/><path  d="m37.3 16.8l-1.2-1c-1-1-2.7-1.1-3.8 0l-1.9 2.5c-1 1-1 2.7 0 3.8l1.5 1.5c-1.6 3.8-4.6 6.8-8.3 8.3l-1.5-1.5c-0.5-0.5-1.2-0.8-1.9-0.8-0.7 0-1.4 0.3-1.9 0.8l-2.5 1.9c-1.1 1.1-1.1 2.8 0 3.8l1 1.2c1.1 1.1 2.6 1.7 4.2 1.7 7.7 0 18-10.3 18-18 0-1.6-0.6-3.1-1.7-4.2zm-16.3 21.2c-1.4 0-2.6-0.5-3.5-1.4l-1-1.2c-0.7-0.6-0.7-1.7 0-2.3l2.5-2c0.3-0.3 0.7-0.5 1.2-0.5 0.5 0 0.9 0.2 1.2 0.5l1.8 1.7c0.1 0.2 0.3 0.2 0.5 0.2 4.2-1.6 7.6-5 9.3-9.3 0.1-0.2 0-0.4-0.1-0.6l-1.8-1.7c-0.6-0.7-0.6-1.8 0.1-2.5l1.9-2.4c0.6-0.7 1.7-0.7 2.4 0l1.1 1c0.9 0.9 1.4 2.1 1.4 3.5 0 7.1-9.9 17-17 17z"/></svg>