<svg version="1.2" xmlns="http://www.w3.org/2000/svg" viewBox="0 0 108 109" width="108" height="109"><defs><clipPath clipPathUnits="userSpaceOnUse" id="cp1"><path d="m34.92 35.28h38v38h-38z"/></clipPath></defs><style>.a{fill:#f6f6f6}.b{fill:#ff3600}</style><path fill-rule="evenodd" class="a" d="m86.5 73.8c2.9-5.7 3.1-12.2 4-18.6 1.1-7.2 4.6-14.7 1.7-21.3-3-6.6-10.7-9.4-17.1-12.7-6.1-3.1-12.4-5.8-19.3-5.6-6.7 0.1-12.8 3.2-18.8 6.4-6 3.3-11.9 6.8-16 12.3-4.3 5.8-8.2 12.7-7.7 19.8 0.5 7.1 6.6 12.1 10.3 18.1 3.5 5.6 6 11.8 11 16 5.6 4.8 11.9 9.5 19.2 9.7 7.3 0.2 13.9-4.3 19.9-8.7 5.4-4 9.8-9.3 12.8-15.4z"/><g clip-path="url(#cp1)"><filter id="f0"><feFlood flood-color="#c9b199" flood-opacity="1" /><feBlend mode="normal" in2="SourceGraphic"/><feComposite in2="SourceAlpha" operator="in" /></filter><g filter="url(#f0)"><path class="b" d="m70.1 62.9l-10.6 3.5q-0.1 0-0.1 0l-4.8-1.7q-0.2-0.1-0.1-0.2l0.2-1.4q0.1-0.2 0.2-0.2l4-0.7c1.1-0.2 1.8-1.3 1.6-2.4-0.2-1.1-1.1-1.8-2.1-1.7l-7.4 0.4c-0.7 0.1-1.4 0.3-2.1 0.7l-13.3 7.6c-0.4 0.3-0.7 0.7-0.7 1.1v4.1c0 0.7 0.6 1.3 1.3 1.3h8.6q0.5 0 0.9-0.4l2-2 10.1 2.2c1.1 0.3 2.2 0.2 3.2-0.4l10.8-5.8c0.9-0.5 1.4-1.7 1-2.7-0.4-1.1-1.6-1.6-2.7-1.3zm1.1 2.9l-10.8 5.8c-0.7 0.4-1.5 0.5-2.4 0.3l-10.4-2.3c-0.2 0-0.4 0-0.6 0.2l-2.2 2.2h-8.6v-4.1l13.4-7.6q0.7-0.4 1.5-0.5l7.3-0.5q0.1 0 0.1 0c0.4 0 0.7 0.3 0.8 0.7 0 0.4-0.2 0.9-0.6 1l-4.1 0.7c-0.5 0.1-1 0.5-1.1 1.1l-0.3 1.4c-0.1 0.7 0.3 1.4 0.9 1.7l4.8 1.7q0.5 0.2 0.9 0l10.7-3.5c0.4-0.1 0.9 0.1 1.1 0.5 0.2 0.5 0 1-0.4 1.2z"/><path class="b" d="m42.5 54.8v1.4c0 1 0.9 1.9 1.9 1.9h2.6c1 0 1.9-0.9 1.9-1.9v-1.3h16.4v1.3c0 1 0.9 1.9 1.9 1.9h2.6c1 0 1.9-0.9 1.9-1.9v-1.4c0.7-0.3 1.2-1 1.2-1.8v-6.4c0-1-0.5-1.8-1.4-2.3l-0.4-0.2c1 0 1.8-0.8 1.8-1.9 0-1-0.8-1.9-1.9-1.9h-1.2c-0.6 0-1.1 0.3-1.5 0.7l-1.5-4.4c-0.2-0.8-0.9-1.3-1.8-1.3h-15.9c-0.8 0-1.5 0.5-1.8 1.3l-1.4 4.4c-0.4-0.4-0.9-0.7-1.5-0.7h-1.2c-1.1 0-1.9 0.9-1.9 1.9 0 1.1 0.7 1.9 1.7 1.9l-0.3 0.2c-0.9 0.5-1.4 1.3-1.4 2.3v6.4c0 0.8 0.5 1.5 1.2 1.8zm5.1 1.4c0 0.3-0.3 0.6-0.6 0.6h-2.6c-0.3 0-0.6-0.3-0.6-0.6v-1.3h3.8zm-5.1-9.6c0-0.5 0.3-0.9 0.7-1.1l2.6-1.3h22.5l2.7 1.3c0.4 0.2 0.7 0.6 0.7 1.1v6.4c0 0.4-0.3 0.7-0.7 0.7h-6.3v-1.3c0-0.7-0.6-1.3-1.3-1.3h-12.6c-0.7 0-1.3 0.6-1.3 1.3v1.3h-6.3c-0.4 0-0.7-0.3-0.7-0.7v-6.4zm27.3 10.2h-2.6c-0.3 0-0.6-0.2-0.6-0.6v-1.3h3.8v1.3c0 0.4-0.3 0.6-0.6 0.6zm-0.7-14.5c0-0.4 0.3-0.7 0.7-0.7h1.2c0.4 0 0.7 0.3 0.7 0.7 0 0.3-0.3 0.6-0.7 0.6h-1.9zm-20.6-5.3c0.1-0.2 0.4-0.4 0.6-0.4h15.9c0.3 0 0.6 0.2 0.6 0.4l2 5.9h-21zm-6 5.3c0-0.3 0.2-0.6 0.6-0.6h1.3c0.3 0 0.6 0.3 0.6 0.6v0.6h-1.9c-0.4 0-0.6-0.2-0.6-0.6zm20.9 11.4h-12.7v-1.3h12.7z"/><path class="b" d="m67.9 47.9c-1.4 0-2.6 1.2-2.6 2.6 0 0.7 0.6 1.2 1.3 1.2h1.3c1.4 0 2.5-1.1 2.5-2.5 0-0.7-0.6-1.3-1.3-1.3zm0 2.6h-1.2c0-0.7 0.5-1.3 1.2-1.3h1.3c0 0.7-0.6 1.3-1.3 1.3z"/><path class="b" d="m46.3 51.7h1.3c0.7 0 1.3-0.5 1.3-1.2 0-1.4-1.2-2.6-2.6-2.6h-1.2c-0.7 0-1.3 0.6-1.3 1.3 0 1.4 1.1 2.5 2.5 2.5zm0-2.5c0.7 0 1.3 0.6 1.3 1.3h-1.3c-0.7 0-1.2-0.6-1.2-1.3z"/><path class="b" d="m45.1 46.7h24c0.4 0 0.7-0.3 0.7-0.7 0-0.3-0.3-0.6-0.7-0.6h-24c-0.4 0-0.7 0.3-0.7 0.6 0 0.4 0.3 0.7 0.7 0.7z"/><path class="b" d="m62.8 48.6h-11.4c-0.4 0-0.6 0.3-0.6 0.6 0 0.4 0.2 0.6 0.6 0.6h11.4c0.3 0 0.6-0.2 0.6-0.6 0-0.3-0.3-0.6-0.6-0.6z"/></g></g></svg>