<svg version="1.2" xmlns="http://www.w3.org/2000/svg" viewBox="0 0 108 109" width="108" height="109"><defs><clipPath clipPathUnits="userSpaceOnUse" id="cp1"><path d="m34.92 35.28h38v38h-38z"/></clipPath></defs><style>.a{fill:#f6f6f6}.b{fill:#ff3600}</style><path fill-rule="evenodd" class="a" d="m86.5 73.8c2.9-5.7 3.1-12.2 4-18.6 1.1-7.2 4.6-14.7 1.7-21.3-3-6.6-10.7-9.4-17.1-12.7-6.1-3.1-12.4-5.8-19.3-5.6-6.7 0.1-12.8 3.2-18.8 6.4-6 3.3-11.9 6.8-16 12.3-4.3 5.8-8.2 12.7-7.7 19.8 0.5 7.1 6.6 12.1 10.3 18.1 3.5 5.6 6 11.8 11 16 5.6 4.8 11.9 9.5 19.2 9.7 7.3 0.2 13.9-4.3 19.9-8.7 5.4-4 9.8-9.3 12.8-15.4z"/><g clip-path="url(#cp1)"><filter id="f0"><feFlood flood-color="#c9b199" flood-opacity="1" /><feBlend mode="normal" in2="SourceGraphic"/><feComposite in2="SourceAlpha" operator="in" /></filter><g filter="url(#f0)"><path class="b" d="m69.6 59l-1.9-1.9c-1.5-1.5-3.2-2.6-5.1-3.4-1.9-0.8-4-1.2-6-1.2q-2 0-3.9 0.5v-5.3h5.1l1.6 2.2q0.1 0.1 0.2 0.2 0.1 0 0.3 0h4.1q0.3 0 0.4-0.1l2.4-2.4q0.1-0.2 0.2-0.3 0-0.2-0.1-0.4 0-0.1-0.2-0.2-0.1-0.1-0.3-0.1h-2.2l-0.8-0.4v-1.6l0.8-0.4h2.2q0.2 0 0.3-0.1 0.2-0.1 0.2-0.3 0.1-0.1 0.1-0.3-0.1-0.2-0.2-0.3l-2.4-2.4q-0.1-0.2-0.4-0.2h-4.1q-0.2 0-0.3 0.1-0.1 0.1-0.2 0.2l-1.6 2.1h-5.1v-5.3c0-0.5-0.2-1-0.5-1.3-0.3-0.3-0.8-0.5-1.2-0.5h-13.1c-0.5 0-0.9 0.2-1.3 0.5-0.3 0.3-0.5 0.8-0.5 1.3v18.4c0 0.4 0.2 0.9 0.5 1.2 0.4 0.4 0.8 0.5 1.3 0.5h6.9l-1.2 1.2h-3.3c-1.3 0-2.5 0.5-3.4 1.4-0.9 0.9-1.4 2.1-1.4 3.4v1.8c0 0.7 0.3 1.5 0.9 2.1 0.5 0.5 1.3 0.8 2.1 0.8h3c0.1 1.2 0.7 2.2 1.6 3 0.8 0.8 1.9 1.2 3.1 1.2 1.2 0 2.3-0.4 3.1-1.2 0.9-0.8 1.5-1.8 1.6-3h8.4c0.2 1.2 0.7 2.2 1.6 3 0.8 0.8 2 1.2 3.1 1.2 1.2 0 2.3-0.4 3.2-1.2 0.8-0.8 1.4-1.8 1.5-3h1.3c0.6 0 1.2-0.2 1.6-0.7 0.5-0.4 0.7-1 0.7-1.6v-4.2c0-0.7-0.3-1.5-0.8-2-0.5-0.6-1.1-0.9-1.9-1zm0.4 8.3h-1.3c-0.1-1.1-0.7-2.2-1.5-2.9-0.9-0.8-2-1.2-3.2-1.2-1.1 0-2.3 0.4-3.1 1.2-0.9 0.7-1.4 1.8-1.6 2.9h-8.4c-0.1-1.1-0.7-2.2-1.6-2.9-0.8-0.8-1.9-1.2-3.1-1.2-1.2 0-2.3 0.4-3.1 1.2-0.9 0.7-1.5 1.8-1.6 2.9h-3c-0.5 0-0.9-0.1-1.3-0.5-0.3-0.3-0.5-0.8-0.5-1.2v-1.2h2.4c0.6 0 1.2-0.3 1.7-0.7 0.4-0.5 0.7-1.1 0.7-1.7v-1.8h26.1v1.8c0 0.5 0.2 0.9 0.5 1.3 0.3 0.3 0.8 0.5 1.3 0.5h1.7v2.4c0 0.3-0.1 0.6-0.3 0.8-0.2 0.2-0.5 0.3-0.8 0.3zm-2.1-8.3h-10.4v-5.3c3.5 0.2 6.8 1.7 9.3 4.2zm-30.6-2.9v-18.5q0-0.2 0.2-0.4 0.1-0.1 0.4-0.1h13q0.3 0 0.5 0.1 0.1 0.2 0.1 0.4v15.7q-0.6 0.2-1.1 0.5v-2.5q-0.1-0.2-0.2-0.4-0.2-0.2-0.4-0.2h-10.7q-0.3 0-0.5 0.2-0.1 0.2-0.1 0.4v3.6q0 0.2 0.1 0.4 0.2 0.2 0.5 0.2h8.3q-0.7 0.5-1.4 1.1h-8.1q-0.3 0-0.4-0.1-0.2-0.2-0.2-0.4zm19-2.4v5.3h-11l1.1-1.1c2.6-2.6 6.2-4.1 9.9-4.2zm1.8-9.5q0.1 0 0.2-0.1 0.2 0 0.2-0.2l1.6-2.1h3.7l1.1 1.2h-0.9q-0.1 0-0.3 0.1l-1.1 0.5q-0.2 0.1-0.3 0.3-0.1 0.1-0.1 0.3v2.4q0 0.1 0.1 0.3 0.1 0.1 0.3 0.2l1.1 0.6q0.2 0 0.3 0h0.9l-1.1 1.2h-3.7l-1.6-2.1q0-0.1-0.2-0.2-0.1 0-0.2 0h-5.4v-2.4zm-8.9 10.1h-9.5v-2.4h9.5zm-8.9 5.9v1.8c0 0.3-0.1 0.6-0.3 0.9-0.3 0.2-0.6 0.3-0.9 0.3h-2.3c0.1-0.8 0.6-1.6 1.2-2.1 0.7-0.6 1.5-0.9 2.3-0.9zm6 11.3c-0.8 0-1.4-0.2-2-0.6-0.6-0.4-1.1-0.9-1.3-1.6-0.3-0.6-0.4-1.4-0.2-2 0.1-0.7 0.4-1.4 0.9-1.9 0.5-0.5 1.2-0.8 1.9-0.9 0.6-0.2 1.4-0.1 2 0.2 0.7 0.2 1.2 0.7 1.6 1.3 0.4 0.6 0.6 1.2 0.6 2 0 0.9-0.4 1.8-1 2.5-0.7 0.6-1.6 1-2.5 1zm17.8 0c-0.7 0-1.4-0.2-2-0.6-0.6-0.4-1.1-0.9-1.3-1.6-0.3-0.6-0.4-1.4-0.2-2 0.1-0.7 0.4-1.4 0.9-1.9 0.5-0.5 1.2-0.8 1.9-0.9 0.7-0.2 1.4-0.1 2 0.2 0.7 0.2 1.2 0.7 1.6 1.3 0.4 0.6 0.6 1.2 0.6 2 0 0.9-0.4 1.8-1 2.5-0.7 0.6-1.6 1-2.5 1zm7.1-9.5v0.6h-1.8q-0.2 0-0.4-0.2-0.2-0.1-0.2-0.4v-1.8h0.6c0.5 0 0.9 0.2 1.3 0.6 0.3 0.3 0.5 0.7 0.5 1.2z"/><path class="b" d="m56.3 61.4h-4.8v1.2h4.8z"/><path class="b" d="m62.2 61.4h-4.7v1.2h4.7z"/><path class="b" d="m46.2 65.6q-0.7 0-1.3 0.4-0.6 0.4-0.9 1-0.3 0.7-0.1 1.4 0.1 0.7 0.6 1.2 0.5 0.5 1.2 0.7 0.7 0.1 1.4-0.2 0.7-0.2 1.1-0.8 0.4-0.6 0.4-1.4c0-0.6-0.3-1.2-0.7-1.6-0.5-0.5-1.1-0.7-1.7-0.7zm0 3.5q-0.4 0-0.7-0.2-0.3-0.2-0.4-0.5-0.1-0.3-0.1-0.7 0.1-0.3 0.4-0.6 0.2-0.3 0.6-0.3 0.3-0.1 0.7 0 0.3 0.2 0.5 0.5 0.2 0.3 0.2 0.6c0 0.4-0.1 0.7-0.4 0.9-0.2 0.2-0.5 0.3-0.8 0.3z"/><path class="b" d="m64 65.6q-0.7 0-1.3 0.4-0.6 0.4-0.9 1-0.2 0.7-0.1 1.4 0.1 0.7 0.6 1.2 0.5 0.5 1.3 0.7 0.7 0.1 1.3-0.2 0.7-0.2 1.1-0.8 0.4-0.6 0.4-1.4c0-0.6-0.3-1.2-0.7-1.6-0.5-0.5-1.1-0.7-1.7-0.7zm0 3.5q-0.3 0-0.6-0.2-0.3-0.2-0.5-0.5-0.1-0.3 0-0.7 0-0.3 0.3-0.6 0.2-0.3 0.6-0.3 0.3-0.1 0.7 0 0.3 0.2 0.5 0.5 0.2 0.3 0.2 0.6c0 0.4-0.1 0.7-0.3 0.9-0.3 0.2-0.6 0.3-0.9 0.3z"/><path class="b" d="m39.1 46h0.3q0.1 0.2 0.2 0.5l-0.2 0.2q-0.1 0.1-0.1 0.2-0.1 0.1-0.1 0.2 0 0.1 0.1 0.3 0 0.1 0.1 0.1l1.7 1.7q0.1 0.2 0.4 0.2 0.2 0 0.4-0.2l0.2-0.2q0.3 0.1 0.5 0.2v0.3q0 0.3 0.2 0.5 0.2 0.1 0.4 0.1h2.4q0.3 0 0.4-0.1 0.2-0.2 0.2-0.5v-0.3q0.3-0.1 0.5-0.2l0.2 0.2q0.2 0.2 0.5 0.2 0.2 0 0.4-0.2l1.7-1.7q0 0 0.1-0.1 0-0.2 0-0.3 0-0.1 0-0.2-0.1-0.1-0.1-0.2l-0.3-0.2q0.2-0.3 0.3-0.5h0.3q0.2 0 0.4-0.2 0.2-0.2 0.2-0.4v-2.4q0-0.2-0.2-0.4-0.2-0.2-0.4-0.2h-0.3q-0.1-0.3-0.3-0.5l0.3-0.2q0-0.1 0.1-0.2 0-0.1 0-0.3 0-0.1 0-0.2-0.1-0.1-0.1-0.2l-1.7-1.7q-0.2-0.1-0.4-0.1-0.3 0-0.5 0.1l-0.2 0.3q-0.2-0.2-0.5-0.2v-0.4q0-0.2-0.2-0.4-0.1-0.1-0.4-0.2h-2.4q-0.2 0.1-0.4 0.2-0.2 0.2-0.2 0.4v0.4q-0.2 0-0.5 0.2l-0.2-0.3q-0.2-0.1-0.4-0.1-0.3 0-0.4 0.1l-1.7 1.7q-0.1 0.1-0.1 0.2-0.1 0.1-0.1 0.2 0 0.2 0.1 0.3 0 0.1 0.1 0.2l0.2 0.2q-0.1 0.2-0.2 0.5h-0.3q-0.3 0-0.4 0.2-0.2 0.2-0.2 0.4v2.4q0 0.2 0.2 0.4 0.1 0.2 0.4 0.2zm0.6-2.4h0.1q0.2 0 0.4-0.1 0.1-0.2 0.2-0.4 0.1-0.5 0.4-1 0.1-0.2 0.1-0.4 0-0.2-0.1-0.3l-0.2-0.2 0.9-0.8 0.1 0.1q0.1 0.2 0.3 0.2 0.2 0 0.4-0.1 0.5-0.3 1.1-0.4 0.2-0.1 0.3-0.2 0.1-0.2 0.1-0.4v-0.2h1.2v0.2q0 0.2 0.1 0.4 0.2 0.1 0.4 0.2 0.5 0.1 1 0.4 0.2 0.1 0.4 0.1 0.2 0 0.4-0.2l0.1-0.1 0.8 0.8-0.1 0.2q-0.2 0.1-0.2 0.3 0 0.2 0.1 0.4 0.3 0.5 0.4 1 0.1 0.2 0.3 0.4 0.1 0.1 0.3 0.1h0.2v1.2h-0.2q-0.2 0-0.3 0.1-0.2 0.1-0.3 0.3-0.1 0.6-0.4 1.1-0.1 0.2-0.1 0.4 0 0.2 0.2 0.3l0.1 0.1-0.8 0.9-0.1-0.1q-0.2-0.2-0.4-0.2-0.2 0-0.4 0.1-0.5 0.3-1 0.4-0.2 0.1-0.4 0.2-0.1 0.2-0.1 0.4v0.1h-1.2v-0.1q0-0.2-0.1-0.4-0.1-0.1-0.3-0.2-0.6-0.1-1.1-0.4-0.2-0.1-0.4-0.1-0.2 0-0.3 0.2l-0.1 0.1-0.9-0.9 0.2-0.1q0.1-0.1 0.1-0.3 0-0.2-0.1-0.4-0.3-0.5-0.4-1.1-0.1-0.2-0.2-0.3-0.2-0.1-0.4-0.1h-0.1z"/><path class="b" d="m44.4 47.2c0.6 0 1.2-0.2 1.7-0.5 0.5-0.4 0.8-0.8 1.1-1.4 0.2-0.5 0.2-1.1 0.1-1.7-0.1-0.6-0.4-1.1-0.8-1.5-0.4-0.4-0.9-0.7-1.5-0.8-0.6-0.1-1.2-0.1-1.7 0.1-0.6 0.3-1 0.6-1.3 1.1-0.4 0.5-0.5 1.1-0.5 1.7 0 0.8 0.3 1.5 0.8 2.1 0.6 0.5 1.3 0.9 2.1 0.9zm0-4.8q0.6 0 1 0.3 0.5 0.3 0.7 0.8 0.2 0.5 0.1 1-0.1 0.6-0.5 0.9-0.4 0.4-0.9 0.5-0.6 0.1-1.1-0.1-0.5-0.2-0.8-0.6-0.3-0.5-0.3-1c0-0.5 0.2-0.9 0.6-1.3 0.3-0.3 0.7-0.5 1.2-0.5z"/></g></g></svg>