<svg version="1.2" xmlns="http://www.w3.org/2000/svg" viewBox="0 0 108 109" width="108" height="109"><style>.a{fill:#f6f6f6}.b{fill:#c9b199}</style><path fill-rule="evenodd" class="a" d="m86.5 73.8c2.9-5.7 3.1-12.2 4-18.6 1.1-7.2 4.6-14.7 1.7-21.3-3-6.6-10.7-9.4-17.1-12.7-6.1-3.1-12.4-5.8-19.3-5.6-6.7 0.1-12.8 3.2-18.8 6.4-6 3.3-11.9 6.8-16 12.3-4.3 5.8-8.2 12.7-7.7 19.8 0.5 7.1 6.6 12.1 10.3 18.1 3.5 5.6 6 11.8 11 16 5.6 4.8 11.9 9.5 19.2 9.7 7.3 0.2 13.9-4.3 19.9-8.7 5.4-4 9.8-9.3 12.8-15.4z"/><path fill-rule="evenodd" class="b" d="m72.6 70.9l-2.1 2c-0.5 0.5-1.3 0.5-1.8 0l-4.5-4.6c-3.1 2.3-6.6 3.5-10.4 3.6-4 0.1-7.8-1.1-11-3.3-0.3-0.2-0.3-0.6-0.1-0.8 0.2-0.3 0.5-0.4 0.8-0.2 5.9 4.2 14 4.2 19.8-0.1-0.4-0.4-0.8-0.7-0.8-1.4 0-0.3 0.1-0.6 0.4-0.9l0.6-0.6-1.7-1.6c-4.9 4.6-12.6 4.4-17.4-0.4-5-5-5-13 0-18 4.9-4.9 12.9-4.9 17.9 0 4.8 4.8 4.9 12.5 0.4 17.6l1.6 1.6 0.6-0.6c0.5-0.5 1.3-0.5 1.8 0l0.5 0.5c3.9-5.5 4.3-12.9 0.9-18.8l-0.4 2.1c0 0.3-0.3 0.5-0.6 0.5-0.3-0.1-0.6-0.4-0.5-0.7l0.6-3.5q0-0.2 0.2-0.4 0 0 0 0 0 0 0 0 0 0 0 0c0.2-0.1 0.3-0.1 0.5-0.1l3.4 1.2c0.3 0.1 0.5 0.4 0.4 0.7-0.1 0.3-0.5 0.5-0.8 0.4l-1.8-0.6c1.7 2.9 2.5 6.1 2.5 9.5-0.1 3.8-1.4 7.4-3.6 10.5l4.6 4.6c0.4 0.5 0.4 1.3 0 1.8zm-19.3-28.8c-2.9 0-5.9 1.1-8.1 3.3-4.5 4.5-4.5 11.9 0 16.4 2.1 2.1 5 3.3 8.1 3.3 6.4 0 11.5-5.1 11.5-11.5 0-6.5-5.2-11.5-11.5-11.5zm18.4 27.8l-4.9-5-0.9-0.9c-0.1 0-0.1 0-0.2 0l-2 2.1c-0.1 0-0.1 0.1 0 0.1l0.9 1 4.9 4.9c0.1 0 0.2 0 0.2 0l2-2q0.1-0.1 0-0.2zm-31.7-9.5l-0.6 3.5q0 0.2-0.2 0.4 0 0 0 0-0.2 0.1-0.5 0.1 0 0 0 0l-3.4-1.2c-0.3-0.1-0.4-0.4-0.3-0.7 0.1-0.3 0.4-0.5 0.7-0.4l1.8 0.6c-4.1-7.1-2.9-16.2 2.9-22.1 3.1-3 7.1-4.9 11.4-5.3 4.3-0.3 8.6 0.9 12 3.3 0.3 0.2 0.3 0.6 0.2 0.8-0.2 0.3-0.6 0.3-0.8 0.2-6.9-4.9-16.1-4.1-22 1.9-5.5 5.5-6.6 14.1-2.7 20.7l0.4-2c0-0.3 0.3-0.5 0.7-0.5 0.3 0.1 0.5 0.4 0.4 0.7zm20.2 0.1c-3.8 3.8-10 3.8-13.8 0-3.8-3.8-3.8-10 0-13.8 3.8-3.8 10-3.8 13.8 0 3.8 3.8 3.8 10 0 13.8zm-0.8-13c-3.4-3.4-8.8-3.4-12.2 0-3.3 3.4-3.3 8.8 0 12.2 3.4 3.4 8.8 3.4 12.2 0 3.3-3.4 3.3-8.8 0-12.2zm-4 1.4l-0.7 6c-0.1 0.7-0.7 1.2-1.4 1.2-0.7 0-1.3-0.5-1.4-1.2l-0.7-6c-0.1-1.2 0.8-2.3 2-2.3h0.2q0.9 0 1.5 0.7c0.4 0.4 0.6 1 0.5 1.6zm-2.1 11.7c-0.9 0-1.7-0.8-1.7-1.8 0-0.9 0.8-1.7 1.7-1.7 1 0 1.8 0.8 1.8 1.7 0 1-0.8 1.8-1.8 1.8zm0.6-1.8c0-0.3-0.3-0.5-0.6-0.5-0.3 0-0.6 0.2-0.6 0.5 0 0.4 0.3 0.6 0.6 0.6 0.3 0 0.6-0.2 0.6-0.6zm0.2-10.8c-0.3-0.2-0.5-0.3-0.9-0.3-0.5 0-0.9 0.5-0.9 1.1l0.8 5.9c0 0.3 0.4 0.3 0.5 0l0.7-5.9q0-0.4-0.2-0.8z"/></svg>